# xmcd
#
# Track frame offsets:
#  183
#  13858
#  32380
#  51790
#  72165
#  89693
#  106875
#  117878
#  132323
#  147160
#  166473
#  180105
#  202085
#
# Disc length: 2850 seconds
#
# Revision: 1
# Processed by: cddbd v1.5.1PL2 Copyright (c) Steve Scherf et al.
# Submitted via: Collectorz.com_Music_Collector 6.10
#
DISCID=af0b200d
DTITLE=Lightnin' Hopkins - Blues In The Bottle
DYEAR=1991
DGENRE=Blues
TTITLE0=Wine Spode-O-Dee
TTITLE1=Buddy Brown's Blues
TTITLE2=Sail On, Little Girl, Sail On
TTITLE3=D.C.7
TTITLE4=Death Bells
TTITLE5=Goin' To Dallas To See My Pony Run
TTITLE6=Beans, Beans, Beans
TTITLE7=Blues In The Bottle
TTITLE8=Jailhouse Blues
TTITLE9=Catfish Blues
TTITLE10=My Grandpa Is Old Too
TTITLE11=Going Back Home
TTITLE12=Talk Of The Town
EXTD=
EXTT0=
EXTT1=
EXTT2=
EXTT3=
EXTT4=
EXTT5=
EXTT6=
EXTT7=
EXTT8=
EXTT9=
EXTT10=
EXTT11=
EXTT12=
PLAYORDER=
